<svg width="24" height="24" viewBox="0 0 24 24" fill="none" xmlns="http://www.w3.org/2000/svg">
<path fill-rule="evenodd" clip-rule="evenodd" d="M16.2394 2.8638C16.1141 2.85393 15.9883 2.85283 15.8628 2.8605C15.272 2.8966 14.7939 3.15918 14.3622 3.49271C13.9575 3.80535 13.5102 4.24835 12.991 4.76257L12.9527 4.80052L12.4377 5.31047L5.27641 12.4021L5.14577 12.5315C3.8629 13.8012 3.04129 14.6144 2.5877 15.6595C2.56523 15.7112 2.54351 15.7633 2.52254 15.8157C2.09911 16.8734 2.09941 18.0383 2.09988 19.8584L2.09992 20.0449L2.09991 20.0786C2.09982 20.2614 2.09972 20.47 2.12125 20.6491C2.14649 20.8591 2.21236 21.1473 2.4338 21.4074C2.48237 21.4645 2.53544 21.5176 2.5925 21.5661C2.85146 21.7866 3.13778 21.8531 3.34837 21.8786C3.52693 21.9002 3.73446 21.9001 3.91525 21.9L3.94883 21.9L4.12195 21.9001C5.82074 21.9005 6.90811 21.9007 7.91048 21.5254C8.06068 21.4692 8.20852 21.4069 8.35363 21.3386C9.3221 20.8829 10.081 20.1041 11.2666 18.8875L11.3875 18.7635L18.4701 11.4993L18.8731 11.145L18.9147 11.1085C19.4863 10.606 19.9775 10.1742 20.3283 9.77819C20.7018 9.35653 21.0044 8.88086 21.0716 8.2734C21.0858 8.14499 21.0908 8.01573 21.0865 7.8866C21.0661 7.27578 20.801 6.77826 20.461 6.32916C20.1416 5.90732 19.6851 5.43914 19.1537 4.89421L19.1151 4.85458L19.0775 4.81599C18.5673 4.29275 18.1278 3.84193 17.7287 3.52224C17.3029 3.18119 16.8295 2.91026 16.2394 2.8638ZM18.9809 8.58468C18.6913 8.91157 18.5465 9.07502 18.3259 9.16301C18.1206 9.2449 17.8394 9.2517 17.6304 9.17983C17.4058 9.10262 17.2226 8.91501 16.8564 8.5398L15.4108 7.05873C15.0452 6.68415 14.8624 6.49686 14.7902 6.27466C14.716 6.04635 14.7373 5.74279 14.8425 5.52704C14.945 5.31707 15.1176 5.18376 15.4627 4.91715C15.7519 4.69372 15.8877 4.66234 15.9726 4.65714C16.0144 4.65459 16.0564 4.65496 16.0981 4.65825C16.183 4.66493 16.3182 4.69869 16.6034 4.92715C16.9056 5.16914 17.2678 5.53837 17.8263 6.11116C18.4071 6.70692 18.7827 7.09453 19.0258 7.41563C19.256 7.71966 19.2846 7.86016 19.2875 7.94652C19.2889 7.98956 19.2873 8.03265 19.2825 8.07546C19.273 8.16135 19.2337 8.29923 18.9809 8.58468Z" fill="#171717"/>
</svg>
