<svg width="24" height="24" viewBox="0 0 24 24" fill="none" xmlns="http://www.w3.org/2000/svg">
<path d="M2.25079 3.58299C2.30877 3.00317 2.33777 2.71325 2.52551 2.52551C2.71325 2.33777 3.00317 2.30877 3.58299 2.25079L4.23141 2.18595C5.46799 2.06229 6.71383 2.06229 7.95041 2.18595L8.59883 2.25079C9.17865 2.30877 9.46856 2.33777 9.65631 2.52551C9.84405 2.71325 9.87304 3.00317 9.93103 3.58299L9.99587 4.23141C10.1195 5.46799 10.1195 6.71383 9.99587 7.95041L9.93103 8.59883C9.87304 9.17865 9.84405 9.46856 9.65631 9.65631C9.46856 9.84405 9.17865 9.87304 8.59883 9.93103L7.95041 9.99587C6.71383 10.1195 5.46799 10.1195 4.23141 9.99587L3.58299 9.93103C3.00317 9.87304 2.71325 9.84405 2.52551 9.65631C2.33777 9.46856 2.30877 9.17865 2.25079 8.59883L2.18595 7.95041C2.06229 6.71383 2.06229 5.46799 2.18595 4.23141L2.25079 3.58299Z" fill="#171717"/>
<path d="M2.25079 15.4013C2.30877 14.8215 2.33777 14.5316 2.52551 14.3439C2.71325 14.1561 3.00317 14.1271 3.58299 14.0692L4.23141 14.0043C5.46799 13.8807 6.71383 13.8807 7.95041 14.0043L8.59883 14.0692C9.17865 14.1271 9.46856 14.1561 9.65631 14.3439C9.84405 14.5316 9.87304 14.8215 9.93103 15.4013L9.99587 16.0498C10.1195 17.2864 10.1195 18.5322 9.99587 19.7688L9.93103 20.4172C9.87304 20.997 9.84405 21.2869 9.65631 21.4747C9.46856 21.6624 9.17865 21.6914 8.59883 21.7494L7.95041 21.8142C6.71383 21.9379 5.46799 21.9379 4.23141 21.8142L3.58299 21.7494C3.00317 21.6914 2.71325 21.6624 2.52551 21.4747C2.33777 21.2869 2.30877 20.997 2.25079 20.4172L2.18595 19.7688C2.06229 18.5322 2.06229 17.2864 2.18595 16.0498L2.25079 15.4013Z" fill="#171717"/>
<path d="M14.0689 3.58299C14.1269 3.00317 14.1559 2.71325 14.3436 2.52551C14.5314 2.33777 14.8213 2.30877 15.4011 2.25079L16.0495 2.18595C17.2861 2.06229 18.5319 2.06229 19.7685 2.18595L20.4169 2.25079C20.9968 2.30877 21.2867 2.33777 21.4744 2.52551C21.6622 2.71325 21.6912 3.00317 21.7491 3.58299L21.814 4.23141C21.9376 5.46799 21.9376 6.71383 21.814 7.95041L21.7491 8.59883C21.6912 9.17865 21.6622 9.46856 21.4744 9.65631C21.2867 9.84405 20.9968 9.87304 20.4169 9.93103L19.7685 9.99587C18.5319 10.1195 17.2861 10.1195 16.0495 9.99587L15.4011 9.93103C14.8213 9.87304 14.5314 9.84405 14.3436 9.65631C14.1559 9.46856 14.1269 9.17865 14.0689 8.59883L14.0041 7.95041C13.8804 6.71383 13.8804 5.46799 14.0041 4.23141L14.0689 3.58299Z" fill="#171717"/>
<path d="M14.0689 15.4013C14.1269 14.8215 14.1559 14.5316 14.3436 14.3439C14.5314 14.1561 14.8213 14.1271 15.4011 14.0692L16.0495 14.0043C17.2861 13.8807 18.5319 13.8807 19.7685 14.0043L20.4169 14.0692C20.9968 14.1271 21.2867 14.1561 21.4744 14.3439C21.6622 14.5316 21.6912 14.8215 21.7491 15.4013L21.814 16.0498C21.9376 17.2864 21.9376 18.5322 21.814 19.7688L21.7491 20.4172C21.6912 20.997 21.6622 21.2869 21.4744 21.4747C21.2867 21.6624 20.9968 21.6914 20.4169 21.7494L19.7685 21.8142C18.5319 21.9379 17.2861 21.9379 16.0495 21.8142L15.4011 21.7494C14.8213 21.6914 14.5314 21.6624 14.3436 21.4747C14.1559 21.2869 14.1269 20.997 14.0689 20.4172L14.0041 19.7688C13.8804 18.5322 13.8804 17.2864 14.0041 16.0498L14.0689 15.4013Z" fill="#171717"/>
</svg>
