<svg width="24" height="24" viewBox="0 0 24 24" fill="none" xmlns="http://www.w3.org/2000/svg">
<path fill-rule="evenodd" clip-rule="evenodd" d="M1.87413 13.1215C1.80433 12.5048 2.31405 12 2.93475 12C3.55544 12 4.05025 12.5058 4.14009 13.12C4.35403 14.5824 4.98396 15.962 5.96636 17.0892C7.19662 18.5009 8.89685 19.422 10.7541 19.6828C12.6113 19.9436 14.5005 19.5267 16.0739 18.5088C17.6473 17.4908 18.799 15.9404 19.317 14.1429C19.8351 12.3454 19.6845 10.4218 18.8931 8.72621C18.1017 7.03061 16.7227 5.67713 15.01 4.91494C13.2973 4.15274 11.3661 4.03312 9.57195 4.57811C8.17295 5.00306 6.9307 5.80979 5.97928 6.89595L8.56394 6.57766C8.91759 6.50851 9.26049 6.73834 9.32983 7.09099C9.39917 7.44364 9.16869 7.78557 8.81504 7.85472L5.12483 8.57623C4.64177 8.67067 4.14772 8.69163 3.65735 8.64929C3.50305 8.65017 3.34784 8.59679 3.22287 8.48716C3.09789 8.37753 3.02501 8.23083 3.00621 8.0781C2.90166 7.59849 2.85946 7.10719 2.89182 6.61739L3.13904 2.87562C3.16273 2.51703 3.47345 2.24549 3.83305 2.26912C4.19265 2.29274 4.46496 2.60259 4.44127 2.96117L4.45261 5.23638C5.65583 3.92977 7.19419 2.95728 8.91697 2.43398C11.2294 1.73155 13.7185 1.88572 15.926 2.86811C18.1336 3.8505 19.9109 5.59499 20.9309 7.78044C21.951 9.96588 22.145 12.4452 21.4773 14.762C20.8097 17.0788 19.3252 19.0771 17.2973 20.3891C15.2693 21.7011 12.8343 22.2385 10.4406 21.9023C8.04684 21.5661 5.85543 20.379 4.26976 18.5595C2.93166 17.0241 2.10092 15.1255 1.87413 13.1215Z" fill="#171717"/>
<path d="M11 13V8" stroke="#171717" stroke-width="2" stroke-linecap="round"/>
<path d="M11 13H14.5" stroke="#171717" stroke-width="2" stroke-linecap="round"/>
</svg>
